HIERARCHY
ROOT RootJoint
{
    OFFSET   0.000000   0.000000   0.000000
    CHANNELS 6 Xposition Yposition Zposition Xrotation Yrotation Zrotation
    JOINT pelvis_lowerback
    {
        OFFSET   0.000000   0.093605   0.000000
        CHANNELS 3 Xrotation Yrotation Zrotation
        JOINT lowerback_torso
        {
            OFFSET   0.000000   0.100000   0.000000
            CHANNELS 3 Xrotation Yrotation Zrotation
            JOINT torso_head
            {
                OFFSET   0.000000   0.282350   0.000000
                CHANNELS 3 Xrotation Yrotation Zrotation
                End Site
                {
                    OFFSET   0.000000   0.192650   0.000000
                }
            }
            JOINT rTorso_Clavicle
            {
                OFFSET  -0.001000   0.157500   0.000000
                CHANNELS 3 Xrotation Yrotation Zrotation
                JOINT rShoulder
                {
                    OFFSET  -0.117647   0.000000   0.000000
                    CHANNELS 3 Xrotation Yrotation Zrotation
                    JOINT rElbow
                    {
                        OFFSET  -0.245000   0.000000   0.000000
                        CHANNELS 3 Xrotation Yrotation Zrotation
                        JOINT rWrist
                        {
                            OFFSET  -0.240000   0.000000   0.000000
                            CHANNELS 3 Xrotation Yrotation Zrotation
                            End Site
                            {
                                OFFSET  -0.116353  -0.002500   0.000000
                            }
                        }
                    }
                }
            }
            JOINT lTorso_Clavicle
            {
                OFFSET   0.001000   0.157500   0.000000
                CHANNELS 3 Xrotation Yrotation Zrotation
                JOINT lShoulder
                {
                    OFFSET   0.117647   0.000000   0.000000
                    CHANNELS 3 Xrotation Yrotation Zrotation
                    JOINT lElbow
                    {
                        OFFSET   0.245000   0.000000   0.000000
                        CHANNELS 3 Xrotation Yrotation Zrotation
                        JOINT lWrist
                        {
                            OFFSET   0.240000   0.000000   0.000000
                            CHANNELS 3 Xrotation Yrotation Zrotation
                            End Site
                            {
                                OFFSET   0.116353  -0.002500   0.000000
                            }
                        }
                    }
                }
            }
        }
    }
    JOINT rHip
    {
        OFFSET  -0.100000  -0.051395   0.000000
        CHANNELS 3 Xrotation Yrotation Zrotation
        JOINT rKnee
        {
            OFFSET   0.000000  -0.410000   0.000000
            CHANNELS 3 Xrotation Yrotation Zrotation
            JOINT rAnkle
            {
                OFFSET   0.000000  -0.390000   0.000000
                CHANNELS 3 Xrotation Yrotation Zrotation
                JOINT rToeJoint
                {
                    OFFSET   0.000000  -0.050000   0.130000
                    CHANNELS 3 Xrotation Yrotation Zrotation
                    End Site
                    {
                        OFFSET  -0.010000   0.002000   0.060000
                    }
                }
            }
        }
    }
    JOINT lHip
    {
        OFFSET   0.100000  -0.051395   0.000000
        CHANNELS 3 Xrotation Yrotation Zrotation
        JOINT lKnee
        {
            OFFSET   0.000000  -0.410000   0.000000
            CHANNELS 3 Xrotation Yrotation Zrotation
            JOINT lAnkle
            {
                OFFSET   0.000000  -0.390000   0.000000
                CHANNELS 3 Xrotation Yrotation Zrotation
                JOINT lToeJoint
                {
                    OFFSET   0.000000  -0.050000   0.130000
                    CHANNELS 3 Xrotation Yrotation Zrotation
                    End Site
                    {
                        OFFSET   0.010000   0.002000   0.060000
                    }
                }
            }
        }
    }
}
MOTION
Frames: 12
Frame Time:   0.008333
 -2.376719   0.925631   3.975860   0.000000   0.000000   0.000000   0.000000   0.000000   0.000000   0.000000   0.000000   0.000000   0.000000   0.000000   0.000000   0.000000   0.000000   0.000000   0.000000   0.000000   0.000000   0.000000   0.000000   0.000000   0.000000   0.000000   0.000000   0.000000   0.000000   0.000000   0.000000   0.000000   0.000000   0.000000   0.000000   0.000000   0.000000   0.000000   0.000000   0.000000   0.000000   0.000000   0.000000   0.000000   0.000000   0.000000   0.000000   0.000000   0.000000   0.000000   0.000000   0.000000   0.000000   0.000000   0.000000   0.000000   0.000000   0.000000   0.000000   0.000000   0.000000   0.000000   0.000000
 -2.376611   0.924932   3.975173   0.549819   0.066572   0.118922  -0.500169  -0.077790  -0.180834   0.007232  -0.116851   0.037901  -0.062865  -0.200809  -0.029685   0.124243  -0.574659  -0.582799   0.075316  -0.198443   1.435657   0.026094   3.570701  -0.008531  -0.261735  -1.164425  -0.568355   0.198325   0.728500   0.642216   0.858948   0.389383  -1.380732   0.025474  -3.661637   0.036093  -0.087222   1.059304   0.506436  -0.822729  -0.124350  -0.331237   0.302682   0.000558  -0.000160  -0.078474  -0.174699   0.053667   0.112059   0.000154  -0.000229  -1.129643  -0.096578   0.032642   1.479692  -0.001981  -0.000382  -0.987952   0.377352   0.164276   0.139106  -0.000384   0.000419
 -2.376473   0.923828   3.974352   1.036955   0.048558   0.243264  -0.942248  -0.123419  -0.361628   0.037883  -0.203410   0.073295  -0.098553  -0.400448  -0.065908   0.238790  -1.075572  -0.947467   0.144988  -0.289205   2.942813   0.055861   7.025270  -0.014938  -0.504814  -1.320683  -0.809425   0.388190   1.427003   1.095813   1.673140   0.687845  -2.814120   0.058780  -7.422856   0.064800  -0.133821   1.233590   0.750611  -1.642621  -0.232903  -0.828920   0.577220   0.001335  -0.000459  -0.149873  -0.341596   0.101502   0.223570   0.000436  -0.000479  -2.171010  -0.183248   0.206733   3.006398  -0.005640  -0.001547  -1.906087   0.734329   0.326555   0.249469  -0.000751   0.000577
 -2.376628   0.923518   3.973598   1.478323  -0.106665   0.249638  -1.359858  -0.121322  -0.475202   0.075719  -0.244785   0.154076  -0.127080  -0.586489  -0.098157   0.345863  -1.473613  -1.061333   0.209148  -0.314647   4.495451   0.086429  10.278309  -0.018634  -0.733428  -1.174020  -0.822338   0.563883   2.045902   1.326493   2.437024   0.911757  -4.276868   0.094946 -10.992981   0.083892  -0.172688   1.101701   0.820807  -2.434829  -0.442732  -0.867193   1.023572   0.001183  -0.001829   0.055028  -0.614632   0.350729   0.323795   0.000158  -0.000949  -3.079579  -0.268733   0.641165   4.455784  -0.010237  -0.003765  -2.758409   1.068290   0.485818   0.381480  -0.001290   0.000582
 -2.376525   0.923446   3.972865   1.906526  -0.266735   0.354677  -1.759638  -0.130895  -0.635202   0.103419  -0.287235   0.197229  -0.158449  -0.760916  -0.134079   0.448425  -1.804336  -1.055199   0.270210  -0.304424   6.036352   0.111876  13.328039  -0.020560  -0.954918  -0.927577  -0.613496   0.729607   2.583297   1.433087   3.155431   1.068432  -5.732337   0.126255 -14.339632   0.095848  -0.212338   0.856778   0.682890  -3.169799  -0.582745  -1.009479   1.403771   0.001058  -0.002510   0.159252  -0.807477   0.478373   0.433365   0.000038  -0.001244  -3.919044  -0.361154   1.038088   5.821743  -0.014393  -0.005282  -3.554217   1.378009   0.639992   0.502093  -0.001722   0.000543
 -2.376187   0.923523   3.972114   2.329766  -0.394400   0.511560  -2.136172  -0.159582  -0.797836   0.122591  -0.343953   0.219556  -0.192986  -0.924303  -0.170620   0.547037  -2.091566  -0.976571   0.328470  -0.276669   7.529533   0.131059  16.180575  -0.021576  -1.170575  -0.651561  -0.277685   0.886814   3.049210   1.447413   3.830719   1.168366  -7.155062   0.150682 -17.473751   0.102971  -0.253865   0.559654   0.404842  -3.858333  -0.664838  -1.214848   1.722042   0.000972  -0.002649   0.184025  -0.943656   0.597682   0.066837   0.000262   0.000175  -4.706866  -0.456232   1.441846   7.098794  -0.018005  -0.005775  -4.298027   1.664941   0.787850   0.609512  -0.002042   0.000516
 -2.375623   0.923680   3.971345   2.744708  -0.510661   0.707516  -2.483969  -0.194218  -0.955790   0.139837  -0.406802   0.230147  -0.228416  -1.076763  -0.205257   0.641932  -2.345076  -0.856298   0.384046  -0.238476   8.958169   0.144129  18.846307  -0.022150  -1.380562  -0.371487   0.129892   1.036467   3.459145   1.400307   4.465155   1.224781  -8.527857   0.167823 -20.406399   0.106762  -0.297399   0.235859   0.034995  -4.519809  -0.729605  -1.472345   2.003487   0.000923  -0.002632   0.205678  -1.068724   0.701274  -0.211718   0.000302   0.000951  -5.436954  -0.550640   1.859465   8.289088  -0.021015  -0.005726  -4.993393   1.931511   0.929667   0.705438  -0.002268   0.000482
 -2.375100   0.923504   3.970880   3.009877  -0.627560   0.764069  -2.654341  -0.258809  -1.016063   0.128503  -0.480867   0.333812  -0.301126  -1.240271  -0.232050   0.675625  -2.680089  -0.974628   0.547989  -0.180156  10.076333   0.144332  21.595087  -0.023094  -1.526100  -0.097256   1.070226   1.108288   3.950572   1.662484   4.857529   1.279543  -9.852429   0.168547 -23.278723   0.100205  -0.340514  -0.145325  -0.880044  -4.991229  -0.752983  -1.570376   2.237506   0.000822  -0.002426   0.429846  -0.903642   0.850030  -1.546599   0.001382   0.000711  -5.772239  -0.595829   2.445671   8.967142  -0.020700  -0.004775  -5.424998   2.433076   1.072902   0.837619  -0.002716   0.000828
 -2.374472   0.923391   3.970417   3.295115  -0.740393   0.759737  -2.834929  -0.332508  -1.023637   0.101139  -0.561141   0.466849  -0.369238  -1.394664  -0.248491   0.698099  -3.015462  -1.220274   0.694187  -0.134282  11.014953   0.136003  24.165540  -0.022298  -1.662502   0.233130   1.873916   1.165221   4.427380   2.025614   5.219144   1.338611 -11.003830   0.159635 -25.960698   0.092472  -0.391911  -0.545787  -1.694156  -5.428739  -0.778424  -1.599795   2.411894   0.000710  -0.002167   0.382180  -0.756853   0.883468  -1.411050   0.001113   0.000566  -6.067253  -0.640272   3.079878   9.554271  -0.019842  -0.003925  -5.829133   2.904589   1.212130   0.977740  -0.003107   0.001111
 -2.373684   0.923292   3.969915   3.584341  -0.853394   0.763714  -3.007838  -0.408197  -1.035014   0.067952  -0.643308   0.597778  -0.433833  -1.538956  -0.260510   0.711083  -3.341975  -1.545217   0.824934  -0.099947  11.821373   0.123409  26.562349  -0.020786  -1.793949   0.550238   2.515182   1.209031   4.880517   2.462607   5.552339   1.399228 -12.008778   0.145683 -28.460813   0.084579  -0.442667  -0.919259  -2.353243  -5.856886  -0.796620  -1.647719   2.550718   0.000625  -0.001906   0.361573  -0.616024   0.929824  -1.302616   0.000895   0.000451  -6.326787  -0.684805   3.678306  10.098891  -0.018780  -0.003255  -6.208044   3.343935   1.345567   1.106558  -0.003306   0.001262
 -2.372743   0.923209   3.969370   3.870447  -0.963748   0.777776  -3.169935  -0.486067  -1.048275   0.034717  -0.727205   0.720994  -0.493894  -1.673701  -0.271552   0.715911  -3.657350  -1.917979   0.942099  -0.075209  12.522989   0.109229  28.796658  -0.019002  -1.919851   0.841458   3.024466   1.240785   5.308198   2.943025   5.858999   1.459278 -12.894475   0.129703 -30.791783   0.076915  -0.491331  -1.261906  -2.879037  -6.276836  -0.809083  -1.716095   2.672074   0.000563  -0.001668   0.357125  -0.481903   0.988661  -1.215870   0.000718   0.000360  -6.551095  -0.728735   4.237999  10.610824  -0.017621  -0.002721  -6.563016   3.752904   1.472915   1.224352  -0.003362   0.001320
 -2.371658   0.923136   3.968783   4.150911  -1.069440   0.800045  -3.321167  -0.566005  -1.062211   0.003125  -0.812763   0.836505  -0.549344  -1.799519  -0.282097   0.714083  -3.960756  -2.317142   1.047608  -0.058598  13.140336   0.095036  30.879457  -0.017176  -2.040083   1.106406   3.433603   1.262094   5.710261   3.445398   6.141469   1.517486 -13.682490   0.113497 -32.965524   0.069672  -0.537677  -1.577343  -3.301983  -6.687704  -0.817190  -1.802437   2.780395   0.000517  -0.001455   0.365222  -0.355095   1.058899  -1.146476   0.000577   0.000287  -6.742844  -0.771284   4.761001  11.093360  -0.016420  -0.002289  -6.895459   4.133607   1.594210   1.332053  -0.003314   0.001314
